<svg width="40" height="40" viewBox="0 0 40 40" fill="none" xmlns="http://www.w3.org/2000/svg">
<path d="M6.66675 9.99998C6.66675 9.55795 6.84234 9.13403 7.1549 8.82147C7.46746 8.50891 7.89139 8.33331 8.33341 8.33331H31.6667C32.1088 8.33331 32.5327 8.50891 32.8453 8.82147C33.1578 9.13403 33.3334 9.55795 33.3334 9.99998C33.3334 10.442 33.1578 10.8659 32.8453 11.1785C32.5327 11.4911 32.1088 11.6666 31.6667 11.6666H8.33341C7.89139 11.6666 7.46746 11.4911 7.1549 11.1785C6.84234 10.8659 6.66675 10.442 6.66675 9.99998ZM6.66675 30C6.66675 29.558 6.84234 29.134 7.1549 28.8215C7.46746 28.5089 7.89139 28.3333 8.33341 28.3333H31.6667C32.1088 28.3333 32.5327 28.5089 32.8453 28.8215C33.1578 29.134 33.3334 29.558 33.3334 30C33.3334 30.442 33.1578 30.8659 32.8453 31.1785C32.5327 31.4911 32.1088 31.6666 31.6667 31.6666H8.33341C7.89139 31.6666 7.46746 31.4911 7.1549 31.1785C6.84234 30.8659 6.66675 30.442 6.66675 30ZM18.3334 18.3333C17.8914 18.3333 17.4675 18.5089 17.1549 18.8215C16.8423 19.134 16.6667 19.558 16.6667 20C16.6667 20.442 16.8423 20.8659 17.1549 21.1785C17.4675 21.4911 17.8914 21.6666 18.3334 21.6666H31.6667C32.1088 21.6666 32.5327 21.4911 32.8453 21.1785C33.1578 20.8659 33.3334 20.442 33.3334 20C33.3334 19.558 33.1578 19.134 32.8453 18.8215C32.5327 18.5089 32.1088 18.3333 31.6667 18.3333H18.3334Z" fill="white"/>
</svg>
